<svg xmlns="http://www.w3.org/2000/svg" viewBox="0 0 135.51 116.53"><defs><style>.cls-1{fill:#231f20;}.cls-2{fill:#fff;}</style></defs><g id="Layer_2" data-name="Layer 2"><g id="Layer_2-2" data-name="Layer 2"><g id="a"><path class="cls-1" d="M65.51,0V76.91c-2.47,1.62-16.19,9.77-17,10.21,0-2.38-.38-25.12-.38-26.13-1.64,1.14-27.74,16.33-28.62,16.9v27c-2.21,1.56-17.9,10.8-19,11.51C.51,113.15,0,40.48,0,38.83,2.54,37.12,65.51,0,65.51,0Z"/><path class="cls-2" d="M46.4,32.54c0,.57.09,5.49,0,6.25C44.45,40,20,54.62,19.27,55.07c0-2.11-.09-5.17,0-6.45C22.27,46.9,46.4,32.54,46.4,32.54Z"/></g><path id="s" class="cls-1" d="M70.51.13V50c4.69,2.77,45,26.61,46,27.17v5.34c-2.2-1.1-46.32-26.63-47.26-27.28,0,3.62,0,21,0,22.11,3.83,2.58,65,38.53,66.26,39.22V65.64c-3.72-2.28-43.87-26.2-45.14-27.22,0-2.11-.17-4.9-.17-5.87,3.55,2.24,44.46,26.75,45.31,27.26V38.09C131.87,35.63,70.51.13,70.51.13Z"/></g></g></svg>