<svg width="97" height="54" viewBox="0 0 97 54" fill="none" xmlns="http://www.w3.org/2000/svg">
<path d="M43.5783 5.84078C46.4711 3.58328 50.5289 3.58328 53.4217 5.84079L69.5708 18.4431C75.5708 23.1254 72.2598 32.75 64.6491 32.75H32.3509C24.7402 32.75 21.4292 23.1254 27.4292 18.4431L43.5783 5.84078Z" fill="black"/>
<path d="M52.9099 42.0865C50.2355 43.8534 46.7645 43.8534 44.0901 42.0865L28.7095 31.9248C22.091 27.5521 25.1869 17.25 33.1193 17.25H63.8807C71.8131 17.25 74.909 27.5521 68.2906 31.9248L52.9099 42.0865Z" fill="black"/>
<rect x="29" width="38" height="33" fill="#E1F8F8" fill-opacity="0.4"/>
<rect x="34" y="8" width="13" height="3" fill="#F8F8F8"/>
<rect x="34" y="13" width="22" height="3" fill="#F8F8F8"/>
<rect x="34" y="18" width="16" height="3" fill="#F8F8F8"/>
<rect x="56" y="23" width="3" height="3" rx="1" fill="#F8F8F8"/>
<path d="M48.0698 36.7351C45.7131 35.6732 45.7131 32.3268 48.0698 31.2649L68.5175 22.0508C70.5029 21.1562 72.75 22.6083 72.75 24.786V43.2141C72.75 45.3917 70.5029 46.8438 68.5175 45.9492L48.0698 36.7351Z" fill="black"/>
<path d="M48.0698 36.7351C45.7131 35.6732 45.7131 32.3268 48.0698 31.2649L68.5175 22.0508C70.5029 21.1562 72.75 22.6083 72.75 24.786V43.2141C72.75 45.3917 70.5029 46.8438 68.5175 45.9492L48.0698 36.7351Z" fill="url(#paint0_radial_202_29)" fill-opacity="0.2"/>
<path d="M49.1454 31.7794C51.4598 32.8549 51.4598 36.1451 49.1454 37.2206L28.5143 46.8078C26.5257 47.7319 24.25 46.28 24.25 44.0872V24.9128C24.25 22.72 26.5257 21.2681 28.5143 22.1922L49.1454 31.7794Z" fill="black"/>
<path d="M49.1454 31.7794C51.4598 32.8549 51.4598 36.1451 49.1454 37.2206L28.5143 46.8078C26.5257 47.7319 24.25 46.28 24.25 44.0872V24.9128C24.25 22.72 26.5257 21.2681 28.5143 22.1922L49.1454 31.7794Z" fill="url(#paint1_radial_202_29)" fill-opacity="0.2"/>
<path d="M47.1215 31.7132C47.9861 31.2659 49.0139 31.2659 49.8785 31.7132L70.8932 42.5855C73.685 44.0299 72.658 48.25 69.5147 48.25H27.4853C24.342 48.25 23.315 44.0299 26.1068 42.5855L47.1215 31.7132Z" fill="black"/>
<path d="M47.1215 31.7132C47.9861 31.2659 49.0139 31.2659 49.8785 31.7132L70.8932 42.5855C73.685 44.0299 72.658 48.25 69.5147 48.25H27.4853C24.342 48.25 23.315 44.0299 26.1068 42.5855L47.1215 31.7132Z" fill="url(#paint2_radial_202_29)" fill-opacity="0.2"/>
<defs>
<radialGradient id="paint0_radial_202_29" cx="0" cy="0" r="1" gradientUnits="userSpaceOnUse" gradientTransform="translate(62.5 34) scale(20.5 16)">
<stop/>
<stop offset="1" stop-color="#9E9191"/>
</radialGradient>
<radialGradient id="paint1_radial_202_29" cx="0" cy="0" r="1" gradientUnits="userSpaceOnUse" gradientTransform="translate(34.5 34.5) rotate(180) scale(20.5 16.5)">
<stop/>
<stop offset="1" stop-color="#9E9191"/>
</radialGradient>
<radialGradient id="paint2_radial_202_29" cx="0" cy="0" r="1" gradientUnits="userSpaceOnUse" gradientTransform="translate(48.5 42.5) rotate(90) scale(11.5 38.5)">
<stop/>
<stop offset="1" stop-color="#9E9191"/>
</radialGradient>
</defs>
</svg>
