<svg xmlns="http://www.w3.org/2000/svg" version="1.1" xmlns:xlink="http://www.w3.org/1999/xlink" xmlns:svgjs="http://svgjs.com/svgjs" width="1440" height="768" preserveAspectRatio="none" viewBox="0 0 1440 768"><g mask="url(&quot;#SvgjsMask1044&quot;)" fill="none"><rect width="1440" height="768" x="0" y="0" fill="rgba(24, 106, 59, 1)"></rect><path d="M0,717.585C131.021,701.34,235.828,606.539,330.981,515.017C412.764,436.355,459.594,334.631,505.868,231.022C551.757,128.276,623.634,23.714,599.498,-86.195C575.602,-195.014,450.21,-242.949,382.378,-331.332C308.593,-427.471,287.691,-564.262,184.197,-627.317C70.706,-696.463,-85.777,-752.064,-201.793,-687.244C-321.83,-620.177,-287.427,-430.288,-367.943,-318.825C-437.51,-222.519,-612.239,-208.002,-632.532,-90.944C-652.697,25.378,-498.735,98.511,-459.601,209.893C-414.41,338.513,-479.787,503.131,-388.294,604.197C-295.931,706.224,-136.578,734.519,0,717.585" fill="#13552f"></path><path d="M1440 1194.311C1519.254 1176.834 1596.805 1161.931 1667.135 1121.43 1740.358 1079.262 1800.6979999999999 1023.02 1852.865 956.549 1918.401 873.043 2012.801 792.308 2008.681 686.236 2004.5520000000001 579.938 1919.659 488.793 1832.337 428.038 1753.6779999999999 373.31 1650.819 387.949 1556.406 371.559 1474.289 357.304 1396.455 327.75 1313.744 338.012 1220.383 349.596 1130.7 378.858 1054.368 433.848 963.4739999999999 499.328 857.107 571.09 837.183 681.328 817.214 791.812 900.501 891.228 953.847 990.019 1003.784 1082.497 1040.965 1197.4270000000001 1137.857 1238.143 1233.618 1278.384 1338.565 1216.679 1440 1194.311" fill="#1d7f47"></path></g><defs><mask id="SvgjsMask1044"><rect width="1440" height="768" fill="#ffffff"></rect></mask></defs></svg>